<svg width="155" height="33" viewBox="0 0 155 33" fill="none" xmlns="http://www.w3.org/2000/svg">
    <path d="M36.1167 16.8191C36.1167 18.2391 35.9247 19.5 35.5407 20.6021C35.1781 21.6829 34.6449 22.6048 33.9409 23.3678C33.2584 24.1307 32.4158 24.7135 31.4133 25.1162C30.432 25.4977 29.3335 25.6884 28.1177 25.6884C26.9871 25.6884 25.9419 25.4977 24.9821 25.1162C24.0222 24.7135 23.1903 24.1307 22.4864 23.3678C21.7824 22.6048 21.2278 21.6829 20.8226 20.6021C20.4386 19.5 20.2466 18.2391 20.2466 16.8191C20.2466 14.9329 20.5666 13.3435 21.2065 12.0507C21.8464 10.7367 22.7637 9.74064 23.9582 9.06247C25.1527 8.3631 26.5712 8.01341 28.2137 8.01341C29.7708 8.01341 31.136 8.3631 32.3091 9.06247C33.5037 9.74064 34.4316 10.7367 35.0928 12.0507C35.7754 13.3435 36.1167 14.9329 36.1167 16.8191ZM23.1583 16.8191C23.1583 18.1543 23.3289 19.3199 23.6702 20.316C24.0328 21.2908 24.5874 22.0432 25.334 22.573C26.0806 23.1029 27.0298 23.3678 28.1817 23.3678C29.3335 23.3678 30.2827 23.1029 31.0293 22.573C31.7759 22.0432 32.3198 21.2908 32.6611 20.316C33.0237 19.3199 33.205 18.1543 33.205 16.8191C33.205 15.4628 33.0237 14.3077 32.6611 13.3541C32.2985 12.4004 31.7439 11.6692 30.9973 11.1606C30.2721 10.6308 29.3228 10.3658 28.1497 10.3658C26.4005 10.3658 25.1314 10.9381 24.3421 12.0825C23.5529 13.2269 23.1583 14.8058 23.1583 16.8191Z" fill="#FFF2E1"/>
    <path d="M49.858 8.01341C50.1779 8.01341 50.5192 8.0346 50.8819 8.07699C51.2658 8.09818 51.5964 8.14057 51.8737 8.20415L51.5218 10.7791C51.2445 10.7155 50.9352 10.6625 50.5939 10.6202C50.2739 10.5778 49.9646 10.5566 49.666 10.5566C49.0047 10.5566 48.3755 10.6943 47.7782 10.9698C47.181 11.2454 46.6477 11.6374 46.1784 12.1461C45.7092 12.6335 45.3359 13.2269 45.0586 13.9263C44.8026 14.6256 44.6746 15.4098 44.6746 16.2787V25.3705H41.859V8.33131H44.1627L44.4826 11.4467H44.6106C44.9732 10.8109 45.4105 10.2387 45.9225 9.73005C46.4344 9.20022 47.021 8.78696 47.6822 8.49025C48.3435 8.17236 49.0687 8.01341 49.858 8.01341Z" fill="#FFF2E1"/>
    <path d="M75.1696 8.01341C77.1107 8.01341 78.5612 8.51145 79.5211 9.50752C80.4809 10.4824 80.9609 12.0719 80.9609 14.276V25.3705H78.1772V14.4031C78.1772 13.0679 77.8893 12.0613 77.3133 11.3831C76.7587 10.7049 75.8842 10.3658 74.6897 10.3658C73.0259 10.3658 71.8313 10.8427 71.1061 11.7964C70.4022 12.7501 70.0502 14.1382 70.0502 15.9608V25.3705H67.2666V14.4031C67.2666 13.513 67.1386 12.7712 66.8826 12.1778C66.6267 11.5632 66.2427 11.1076 65.7308 10.8109C65.2188 10.5142 64.5576 10.3658 63.747 10.3658C62.5952 10.3658 61.6886 10.6096 61.0273 11.097C60.3661 11.5632 59.8862 12.252 59.5875 13.1633C59.3102 14.0746 59.1716 15.1979 59.1716 16.533V25.3705H56.3559V8.33131H58.6276L59.0436 10.6519H59.2036C59.5662 10.0585 60.0035 9.5711 60.5154 9.18963C61.0487 8.78696 61.6353 8.49026 62.2752 8.29952C62.9151 8.10878 63.5764 8.01341 64.2589 8.01341C65.5815 8.01341 66.68 8.24654 67.5545 8.71278C68.4504 9.17903 69.101 9.89959 69.5063 10.8745H69.6663C70.2422 9.89959 71.0208 9.17903 72.002 8.71278C73.0045 8.24654 74.0604 8.01341 75.1696 8.01341Z" fill="#FFF2E1"/>
    <path d="M94.0335 8.0452C96.1239 8.0452 97.6704 8.50085 98.673 9.41215C99.6755 10.3235 100.177 11.7752 100.177 13.7673V25.3705H98.129L97.5851 22.9545H97.4571C96.9665 23.5691 96.4546 24.0883 95.9213 24.5122C95.4094 24.9149 94.8121 25.2116 94.1295 25.4023C93.4683 25.593 92.6577 25.6884 91.6978 25.6884C90.6739 25.6884 89.7461 25.5083 88.9142 25.148C88.1036 24.7877 87.4637 24.2367 86.9944 23.4949C86.5251 22.732 86.2905 21.7783 86.2905 20.6339C86.2905 18.9384 86.9624 17.635 88.3062 16.7237C89.6501 15.7913 91.7191 15.2826 94.5135 15.1979L97.4251 15.1025V14.0852C97.4251 12.6653 97.1158 11.6798 96.4972 11.1288C95.8786 10.5778 95.0041 10.3023 93.8736 10.3023C92.9777 10.3023 92.1244 10.44 91.3139 10.7155C90.5033 10.9698 89.7461 11.2665 89.0421 11.6056L88.1783 9.50752C88.9248 9.10485 89.8101 8.76576 90.8339 8.49025C91.8578 8.19355 92.9243 8.0452 94.0335 8.0452ZM94.8654 17.137C92.7324 17.2218 91.2499 17.5609 90.418 18.1543C89.6074 18.7477 89.2021 19.5848 89.2021 20.6657C89.2021 21.6193 89.4901 22.3187 90.066 22.7638C90.6633 23.2088 91.4205 23.4313 92.3377 23.4313C93.7882 23.4313 94.9934 23.0393 95.9533 22.2551C96.9132 21.4498 97.3931 20.2206 97.3931 18.5675V17.0416L94.8654 17.137Z" fill="#FFF2E1"/>
    <path d="M112.481 23.3996C112.907 23.3996 113.345 23.3678 113.793 23.3042C114.241 23.2194 114.603 23.1346 114.88 23.0499V25.1798C114.582 25.3281 114.155 25.4447 113.601 25.5295C113.046 25.6354 112.513 25.6884 112.001 25.6884C111.105 25.6884 110.273 25.5401 109.505 25.2433C108.759 24.9255 108.151 24.385 107.681 23.6221C107.212 22.8591 106.977 21.7889 106.977 20.4113V10.493H104.546V9.15783L107.009 8.0452L108.129 4.42119H109.793V8.33131H114.752V10.493H109.793V20.3478C109.793 21.3862 110.038 22.1598 110.529 22.6684C111.041 23.1558 111.692 23.3996 112.481 23.3996Z" fill="#FFF2E1"/>
    <path d="M122.41 8.33131V25.3705H119.594V8.33131H122.41ZM121.034 1.94161C121.461 1.94161 121.834 2.08996 122.154 2.38666C122.495 2.66217 122.666 3.10722 122.666 3.72182C122.666 4.31523 122.495 4.76028 122.154 5.05698C121.834 5.35369 121.461 5.50204 121.034 5.50204C120.565 5.50204 120.17 5.35369 119.85 5.05698C119.53 4.76028 119.37 4.31523 119.37 3.72182C119.37 3.10722 119.53 2.66217 119.85 2.38666C120.17 2.08996 120.565 1.94161 121.034 1.94161Z" fill="#FFF2E1"/>
    <path d="M137.026 10.493H132.707V25.3705H129.891V10.493H126.883V9.18963L129.891 8.23594V7.25046C129.891 5.78814 130.104 4.60133 130.531 3.69003C130.979 2.77873 131.619 2.11115 132.451 1.68729C133.283 1.26343 134.285 1.0515 135.458 1.0515C136.141 1.0515 136.76 1.11508 137.314 1.24224C137.89 1.3482 138.381 1.47536 138.786 1.62371L138.05 3.81719C137.709 3.71123 137.314 3.60526 136.866 3.4993C136.418 3.39333 135.96 3.34035 135.49 3.34035C134.552 3.34035 133.848 3.65824 133.379 4.29403C132.931 4.90863 132.707 5.88351 132.707 7.21867V8.33131H137.026V10.493Z" fill="#FFF2E1"/>
    <path d="M138.714 8.33131H141.722L145.433 18.0271C145.646 18.5993 145.838 19.1504 146.009 19.6802C146.201 20.21 146.372 20.7292 146.521 21.2379C146.67 21.7253 146.788 22.2022 146.873 22.6684H147.001C147.129 22.1386 147.332 21.4498 147.609 20.6021C147.886 19.7332 148.174 18.8642 148.473 17.9953L151.96 8.33131H155L147.609 27.7229C147.204 28.7826 146.724 29.7045 146.169 30.4886C145.636 31.294 144.975 31.9086 144.185 32.3324C143.417 32.7775 142.479 33 141.37 33C140.858 33 140.41 32.9682 140.026 32.9046C139.642 32.8622 139.311 32.8093 139.034 32.7457V30.5204C139.269 30.5628 139.546 30.6052 139.866 30.6476C140.207 30.69 140.559 30.7112 140.922 30.7112C141.583 30.7112 142.148 30.584 142.618 30.3297C143.108 30.0966 143.524 29.7469 143.865 29.2806C144.207 28.8356 144.495 28.3057 144.729 27.6911L145.625 25.4341L138.714 8.33131Z" fill="#FFF2E1"/>
    <path d="M0 24.4535V10.3927C0 9.71747 0.550966 9.17006 1.23062 9.17006H14.7674C15.4471 9.17006 15.998 9.71747 15.998 10.3927V12.6853C15.998 13.3605 15.4471 13.9079 14.7674 13.9079H5.3901C4.71045 13.9079 4.15949 14.4553 4.15949 15.1306V24.4535C4.15949 25.1288 3.60852 25.6762 2.92887 25.6762H1.23062C0.550966 25.6762 0 25.1288 0 24.4535Z" fill="#FFF2E1"/>
    <path d="M0 2.75102V1.22268C0 0.54741 0.550966 0 1.23062 0H14.7674C15.4471 0 15.998 0.54741 15.998 1.22268V2.75102C15.998 3.42628 15.4471 3.97369 14.7674 3.97369H1.23062C0.550966 3.97369 0 3.42628 0 2.75102Z" fill="#76ABAE"/>
</svg>
