<svg width="118" height="25" viewBox="0 0 118 25" fill="none" xmlns="http://www.w3.org/2000/svg">
    <path d="M27.4953 12.7418C27.4953 13.8175 27.3491 14.7728 27.0568 15.6076C26.7808 16.4265 26.3748 17.1249 25.8389 17.7029C25.3193 18.2808 24.6778 18.7224 23.9146 19.0274C23.1676 19.3164 22.3313 19.4609 21.4057 19.4609C20.545 19.4609 19.7493 19.3164 19.0186 19.0274C18.2878 18.7224 17.6545 18.2808 17.1186 17.7029C16.5828 17.1249 16.1606 16.4265 15.852 15.6076C15.5597 14.7728 15.4136 13.8175 15.4136 12.7418C15.4136 11.3128 15.6572 10.1087 16.1443 9.12931C16.6315 8.13388 17.3298 7.37928 18.2391 6.86551C19.1485 6.33568 20.2284 6.07077 21.4788 6.07077C22.6642 6.07077 23.7035 6.33568 24.5966 6.86551C25.506 7.37928 26.2124 8.13388 26.7158 9.12931C27.2355 10.1087 27.4953 11.3128 27.4953 12.7418ZM17.6302 12.7418C17.6302 13.7532 17.7601 14.6363 18.0199 15.3909C18.296 16.1294 18.7182 16.6994 19.2865 17.1008C19.8549 17.5022 20.5775 17.7029 21.4544 17.7029C22.3313 17.7029 23.0539 17.5022 23.6223 17.1008C24.1907 16.6994 24.6048 16.1294 24.8646 15.3909C25.1406 14.6363 25.2787 13.7532 25.2787 12.7418C25.2787 11.7142 25.1406 10.8392 24.8646 10.1167C24.5885 9.39422 24.1663 8.84031 23.598 8.45498C23.0458 8.0536 22.3232 7.85291 21.4301 7.85291C20.0985 7.85291 19.1323 8.2864 18.5314 9.15339C17.9306 10.0204 17.6302 11.2165 17.6302 12.7418Z" fill="var(--text-color)"/>
    <path d="M37.9564 6.07077C38.2 6.07077 38.4598 6.08682 38.7359 6.11893C39.0282 6.13499 39.2799 6.1671 39.491 6.21526L39.223 8.16599C39.0119 8.11782 38.7765 8.07768 38.5166 8.04557C38.2731 8.01346 38.0376 7.99741 37.8102 7.99741C37.3068 7.99741 36.8278 8.10177 36.3731 8.31049C35.9184 8.5192 35.5124 8.81623 35.1552 9.20156C34.7979 9.57083 34.5138 10.0204 34.3027 10.5502C34.1078 11.08 34.0104 11.6741 34.0104 12.3323V19.2201H31.8668V6.3116H33.6206L33.8642 8.67173H33.9616C34.2377 8.19007 34.5706 7.75658 34.9603 7.37125C35.3501 6.96987 35.7966 6.65679 36.3 6.43201C36.8034 6.19118 37.3556 6.07077 37.9564 6.07077Z" fill="var(--text-color)"/>
    <path d="M57.2259 6.07077C58.7036 6.07077 59.8079 6.44807 60.5386 7.20267C61.2694 7.94121 61.6347 9.14536 61.6347 10.8151V19.2201H59.5156V10.9114C59.5156 9.89996 59.2963 9.13733 58.8579 8.62356C58.4357 8.10979 57.7699 7.85291 56.8605 7.85291C55.5939 7.85291 54.6845 8.21415 54.1324 8.93664C53.5965 9.65913 53.3286 10.7108 53.3286 12.0915V19.2201H51.2094V10.9114C51.2094 10.2371 51.112 9.67519 50.9171 9.22564C50.7222 8.76003 50.4299 8.41484 50.0402 8.19007C49.6505 7.96529 49.1471 7.85291 48.53 7.85291C47.6531 7.85291 46.9629 8.03754 46.4595 8.40682C45.9561 8.76003 45.5908 9.28183 45.3634 9.97221C45.1523 10.6626 45.0468 11.5135 45.0468 12.525V19.2201H42.9032V6.3116H44.6327L44.9493 8.06965H45.0711C45.3472 7.62011 45.6801 7.25083 46.0698 6.96184C46.4758 6.65679 46.9223 6.43201 47.4095 6.28751C47.8967 6.14302 48.4001 6.07077 48.9197 6.07077C49.9265 6.07077 50.7628 6.24737 51.4286 6.60059C52.1107 6.95381 52.6059 7.49969 52.9145 8.23824H53.0363C53.4747 7.49969 54.0674 6.95381 54.8144 6.60059C55.5776 6.24737 56.3815 6.07077 57.2259 6.07077Z" fill="var(--text-color)"/>
    <path d="M71.5868 6.09485C73.1782 6.09485 74.3555 6.44004 75.1188 7.13042C75.882 7.8208 76.2636 8.92059 76.2636 10.4298V19.2201H74.7047L74.2906 17.3898H74.1931C73.8197 17.8554 73.4299 18.2487 73.024 18.5698C72.6342 18.8749 72.1795 19.0997 71.6599 19.2442C71.1565 19.3887 70.5394 19.4609 69.8087 19.4609C69.0292 19.4609 68.3228 19.3244 67.6895 19.0515C67.0724 18.7786 66.5852 18.3611 66.228 17.7992C65.8707 17.2212 65.6921 16.4987 65.6921 15.6317C65.6921 14.3473 66.2036 13.3599 67.2267 12.6695C68.2497 11.9631 69.8249 11.5777 71.9522 11.5135L74.1688 11.4413V10.6706C74.1688 9.59491 73.9333 8.84834 73.4624 8.4309C72.9915 8.01346 72.3257 7.80474 71.465 7.80474C70.783 7.80474 70.1334 7.9091 69.5164 8.11782C68.8993 8.31048 68.3228 8.53526 67.7869 8.79214L67.1293 7.20267C67.6976 6.89762 68.3715 6.64073 69.151 6.43201C69.9305 6.20724 70.7424 6.09485 71.5868 6.09485ZM72.2201 12.9826C70.5962 13.0468 69.4676 13.3037 68.8343 13.7532C68.2173 14.2028 67.9087 14.837 67.9087 15.6558C67.9087 16.3783 68.1279 16.9081 68.5664 17.2453C69.0211 17.5824 69.5976 17.751 70.2958 17.751C71.4001 17.751 72.3176 17.454 73.0483 16.8599C73.7791 16.2498 74.1444 15.3186 74.1444 14.0663V12.9103L72.2201 12.9826Z" fill="var(--text-color)"/>
    <path d="M85.6305 17.7269C85.9553 17.7269 86.2882 17.7029 86.6292 17.6547C86.9702 17.5905 87.2463 17.5262 87.4574 17.462V19.0756C87.23 19.188 86.9053 19.2763 86.483 19.3405C86.0608 19.4208 85.6549 19.4609 85.2651 19.4609C84.5831 19.4609 83.9498 19.3485 83.3652 19.1237C82.7968 18.8829 82.334 18.4735 81.9768 17.8955C81.6195 17.3175 81.4409 16.5067 81.4409 15.4631V7.94924H79.5896V6.93775L81.4652 6.09485L82.3178 3.34939H83.5844V6.3116H87.3599V7.94924H83.5844V15.415C83.5844 16.2017 83.7712 16.7877 84.1446 17.173C84.5344 17.5423 85.0297 17.7269 85.6305 17.7269Z" fill="var(--text-color)"/>
    <path d="M93.1896 6.3116V19.2201H91.046V6.3116H93.1896ZM92.1422 1.47091C92.4669 1.47091 92.7511 1.5833 92.9947 1.80808C93.2545 2.0168 93.3844 2.35396 93.3844 2.81956C93.3844 3.26911 93.2545 3.60627 92.9947 3.83105C92.7511 4.05582 92.4669 4.16821 92.1422 4.16821C91.7849 4.16821 91.4845 4.05582 91.2409 3.83105C90.9973 3.60627 90.8755 3.26911 90.8755 2.81956C90.8755 2.35396 90.9973 2.0168 91.2409 1.80808C91.4845 1.5833 91.7849 1.47091 92.1422 1.47091Z" fill="var(--text-color)"/>
    <path d="M104.317 7.94924H101.028V19.2201H98.8848V7.94924H96.5952V6.96184L98.8848 6.23935V5.49277C98.8848 4.38496 99.0472 3.48586 99.372 2.79548C99.713 2.1051 100.2 1.59936 100.833 1.27825C101.467 0.957143 102.23 0.79659 103.123 0.79659C103.643 0.79659 104.114 0.844756 104.536 0.941088C104.974 1.02137 105.348 1.1177 105.656 1.23008L105.096 2.89181C104.836 2.81153 104.536 2.73126 104.195 2.65098C103.854 2.5707 103.505 2.53057 103.148 2.53057C102.433 2.53057 101.897 2.7714 101.54 3.25306C101.199 3.71866 101.028 4.45721 101.028 5.46869V6.3116H104.317V7.94924Z" fill="var(--text-color)"/>
    <path d="M105.602 6.3116H107.891L110.717 13.6569C110.879 14.0904 111.025 14.5078 111.155 14.9092C111.301 15.3106 111.431 15.704 111.545 16.0893C111.659 16.4586 111.748 16.8198 111.813 17.173H111.91C112.008 16.7716 112.162 16.2498 112.373 15.6076C112.584 14.9494 112.804 14.2911 113.031 13.6328L115.686 6.3116H118L112.373 21.0022C112.065 21.805 111.699 22.5034 111.277 23.0974C110.871 23.7075 110.368 24.1732 109.767 24.4943C109.182 24.8314 108.468 25 107.623 25C107.234 25 106.893 24.9759 106.6 24.9278C106.308 24.8956 106.056 24.8555 105.845 24.8073V23.1215C106.024 23.1536 106.235 23.1857 106.479 23.2179C106.738 23.25 107.006 23.266 107.282 23.266C107.786 23.266 108.216 23.1697 108.573 22.977C108.947 22.8004 109.263 22.5355 109.523 22.1823C109.783 21.8451 110.002 21.4437 110.181 20.9781L110.863 19.2682L105.602 6.3116Z" fill="var(--text-color)"/>
    <path d="M0 18.5254V7.87329C0 7.36172 0.419445 6.94702 0.936857 6.94702H11.2423C11.7597 6.94702 12.1791 7.36172 12.1791 7.87329V9.61004C12.1791 10.1216 11.7597 10.5363 11.2423 10.5363H4.10343C3.58602 10.5363 3.16658 10.951 3.16658 11.4626V18.5254C3.16658 19.0369 2.74713 19.4516 2.22972 19.4516H0.936857C0.419445 19.4516 0 19.0369 0 18.5254Z" fill="var(--text-color)"/>
    <path d="M0 2.08411V0.926269C0 0.414705 0.419445 0 0.936857 0H11.2423C11.7597 0 12.1791 0.414705 12.1791 0.926269V2.08411C12.1791 2.59567 11.7597 3.01037 11.2423 3.01037H0.936857C0.419445 3.01037 0 2.59567 0 2.08411Z" fill="#76ABAE"/>
</svg>
